<?xml version="1.0" encoding="utf-8"?>
<!-- Generator: Adobe Illustrator 24.1.0, SVG Export Plug-In . SVG Version: 6.00 Build 0)  -->
<svg version="1.1" id="Layer_1" xmlns="http://www.w3.org/2000/svg" xmlns:xlink="http://www.w3.org/1999/xlink"
	 viewBox="0 0 290.6 290.6">
<g>
	<g>
		<g>
			<path class="st0" d="M67.2,220.3h181.7L289,79.7h-11c-1.5-29.4-16.6-32.8-23.3-32.8c-6.1,0-10.6,2.3-14.1,5.5v-5.5
				c0-7.8,6.3-14.1,14.1-14.1v-9.4c-12.9,0-23.4,10.5-23.4,23.4v5.5c-3.4-3.2-8-5.5-14.1-5.5c-4.1,0-11.2,1.2-16.5,8.7l6.4-27.3
				c1.6-6.9,0-14-4.4-19.6c-4.4-5.6-11-8.7-18.1-8.7c-10.6,0-19.8,7.2-22.3,17.5l-6.5,25.9c-8.3-17.3-26-29.3-46.4-29.3
				c-28.4,0-51.6,23.1-51.6,51.6c0,4.8,0.7,9.5,2,14.1h-6.1L38.1,14.1H1.6v9.4h29.1l44.7,187.5h-8.1c-12.9,0-23.4,10.5-23.4,23.4
				c0,12.9,10.5,23.4,23.4,23.4h0.4c-0.3,1.5-0.4,3.1-0.4,4.7c0,15.5,12.6,28.1,28.1,28.1s28.1-12.6,28.1-28.1
				c0-1.6-0.2-3.2-0.4-4.7h66.5c-0.3,1.5-0.4,3.1-0.4,4.7c0,15.5,12.6,28.1,28.1,28.1c15.5,0,28.1-12.6,28.1-28.1
				c0-15.5-12.6-28.1-28.1-28.1c-10.4,0-19.5,5.7-24.3,14.1h-73.2c-4.9-8.4-13.9-14.1-24.3-14.1c-10.4,0-19.4,5.7-24.3,14.1h-3.8
				c-7.8,0-14.1-6.3-14.1-14.1C53.2,226.6,59.5,220.3,67.2,220.3z M217.2,56.2c10.8,0,14.1,14.9,14.2,15c0.5,2.2,2.4,3.7,4.6,3.7
				c0,0,0,0,0,0c2.2,0,4.1-1.5,4.6-3.7c0-0.2,3.4-15,14.2-15c10.5,0,13.3,13.1,13.9,23.4h-65.4C203.8,69.3,206.7,56.2,217.2,56.2z
				 M160.8,62.1L160.8,62.1l10.6-42.3c1.5-6.1,7-10.4,13.2-10.4c4.2,0,8.1,1.9,10.7,5.2c2.6,3.3,3.5,7.5,2.6,11.6l-12.6,53.5h-26.4
				c1.3-4.6,2-9.3,2-14.1C161,64.4,160.9,63.2,160.8,62.1z M151.6,65.6c0,4.8-0.9,9.5-2.5,14.1h-13.8c-1.6-4.5-2.5-9.2-2.5-14.1
				c0-9.8,3.3-19,9.4-26.5C148.1,46.4,151.6,55.6,151.6,65.6z M109.4,23.4c9.8,0,18.9,3.4,26.1,9.1c-7.8,9.3-12,20.8-12,33.1
				c0,4.8,0.7,9.5,2,14.1H93.3c1.3-4.6,2-9.3,2-14.1c0-12.2-4.2-23.8-12-33.1C90.5,26.9,99.5,23.4,109.4,23.4z M76.6,39.2
				c6.1,7.5,9.4,16.7,9.4,26.5c0,4.8-0.9,9.5-2.5,14.1H69.7c-1.6-4.5-2.5-9.2-2.5-14.1C67.2,55.6,70.7,46.4,76.6,39.2z M56,89.1
				h220.7l-34.8,121.9H85L56,89.1z M217.2,243.7c10.3,0,18.8,8.4,18.8,18.8c0,10.3-8.4,18.8-18.8,18.8c-10.3,0-18.8-8.4-18.8-18.8
				C198.5,252.2,206.9,243.7,217.2,243.7z M95.3,243.7c10.3,0,18.8,8.4,18.8,18.8c0,10.3-8.4,18.8-18.8,18.8
				c-10.3,0-18.8-8.4-18.8-18.8C76.6,252.2,85,243.7,95.3,243.7z"/>
			<circle class="st0" cx="217.2" cy="262.5" r="4.7"/>
			<circle class="st0" cx="95.3" cy="262.5" r="4.7"/>
			<path class="st0" d="M250,121.9v-9.4h-42.2V98.4h-9.4v14.1h-28.1V98.4H161v14.1h-28.1V98.4h-9.4v14.1H86v9.4h37.5v18.8H90.7v9.4
				h32.8v18.8H95.3v9.4h28.1v14.1h9.4v-14.1H161v14.1h9.4v-14.1h28.1v14.1h9.4v-14.1h23.4v-9.4h-23.4V150h32.8v-9.4h-32.8v-18.8H250
				z M161,168.7h-28.1V150H161V168.7z M161,140.6h-28.1v-18.8H161V140.6z M198.5,168.7h-28.1V150h28.1V168.7z M198.5,140.6h-28.1
				v-18.8h28.1V140.6z"/>
			
				<rect x="175" y="34.9" transform="matrix(0.2425 -0.9701 0.9701 0.2425 92.9106 208.0699)" class="st0" width="9.4" height="19.3"/>
			
				<rect x="170.3" y="53.6" transform="matrix(0.2425 -0.9701 0.9701 0.2425 71.171 217.7234)" class="st0" width="9.4" height="19.3"/>
		</g>
	</g>
</g>
</svg>
