<svg id="Layer_1" data-name="Layer 1" xmlns="http://www.w3.org/2000/svg" viewBox="0 0 320.81 391.91"><defs><style>.cls-1{fill:#f9b115;}.cls-2,.cls-3,.cls-4{fill:#fff;}.cls-3{stroke:#000;stroke-miterlimit:10;}.cls-4{font-size:36px;font-family:MarkerFelt-Thin, Marker Felt;font-weight:200;}.cls-5{letter-spacing:0.02em;}.cls-6{letter-spacing:0.05em;}.cls-7{letter-spacing:0.05em;}.cls-8{letter-spacing:0.04em;}.cls-9{letter-spacing:0.03em;}.cls-10{fill:#af2024;}</style></defs><path class="cls-1" d="M88.68,223.5V154.89a0,0,0,0,1,0,0l4.67-1.12s0,0,0,0a7.5,7.5,0,0,0,7.54,5.4,7.7,7.7,0,0,0,7.16-7.79v-1.14s0,0,0,0l4.42-1.06s0,0,0,0a7.52,7.52,0,0,0,8.64,6.57,7.68,7.68,0,0,0,6.31-7.69v-2.48s0,0,0,0l4.36-1s0,0,0,0v14a7.7,7.7,0,0,0,6.59,7.75,7.5,7.5,0,0,0,8.41-7.44V140.9s0,0,0,0L329.71,97a7.5,7.5,0,1,0-3.5-14.58L147,125.44s0,0,0,0v-22s0,0,0,0L310,33.57a7.5,7.5,0,0,0-5.91-13.79L146.57,87.25s0,0,0,0a7.5,7.5,0,0,0-7.58-5A7.68,7.68,0,0,0,132,90v3.49s0,0,0,0l-4.5,1.93s0,0,0,0a7.49,7.49,0,0,0-8.72-6A7.66,7.66,0,0,0,112.53,97v4.76s0,0,0,0L108,103.75s0,0,0,0a7.51,7.51,0,0,0-8.72-6.06,7.66,7.66,0,0,0-6.16,7.64v4.81l0,0-4.44,1.9s0,0,0,0A7.5,7.5,0,0,0,80,105.65a7.68,7.68,0,0,0-6.27,7.67v5.12a0,0,0,0,1,0,0l-4.58,2s0,0,0,0a7.51,7.51,0,0,0-7.48-5.75,7.65,7.65,0,0,0-7.31,7.82c.08,4.77,0,18.58,0,18.58.11-6.28,0,6.6,0,6.62s-.87,15.06,0,15.46c.11,0,0,60.33,0,60.36" transform="translate(-14.65 -19.14)"/><polygon class="cls-2" points="54.61 117.53 59.04 115.64 59.04 123.9 54.61 124.97 54.61 117.53"/><path class="cls-2" d="M69.27,223.5,71,160.63a.24.24,0,0,1,.19-.23l3.94-1a.25.25,0,0,1,.3.24v58a.33.33,0,0,1,0,.13l0,5.72Z" transform="translate(-14.65 -19.14)"/><polygon class="cls-2" points="74.04 109.22 78.46 107.32 78.46 119.24 74.04 120.3 74.04 109.22"/><polygon class="cls-2" points="93.46 100.9 97.89 99 97.89 114.58 93.46 115.64 93.46 100.9"/><polygon class="cls-2" points="112.89 110.98 112.89 92.58 117.31 90.68 117.31 109.91 112.89 110.98"/><path d="M22.15,259a7.5,7.5,0,0,0-7.5,7.5c0,28.22,6.89,54.24,19.93,75.24a110.05,110.05,0,0,0,54.55,45.09v16.73a7.5,7.5,0,0,0,7.5,7.5h97.49a7.5,7.5,0,0,0,7.5-7.5V386.82a110.05,110.05,0,0,0,54.55-45.09c13-21,19.93-47,19.93-75.24a7.5,7.5,0,0,0-7.5-7.5M104.13,396.05v-7.19h82.49v7.19Z" transform="translate(-14.65 -19.14)"/><path class="cls-3" d="M85.13,344c-16.69-10.31-28.23-27-33.39-48.31a7.5,7.5,0,1,0-14.57,3.53c6.1,25.21,20,45.11,40.07,57.54A7.5,7.5,0,0,0,85.13,344Z" transform="translate(-14.65 -19.14)"/><path class="cls-1" d="M187.52,182.69a81.5,81.5,0,0,1,81,73.94H255a67.91,67.91,0,0,0-128.8-21.87,61.3,61.3,0,0,0-8.83-12A80.94,80.94,0,0,1,187.52,182.69Zm14.12,73.94a15.79,15.79,0,0,0-28.26,0H160.47a28,28,0,0,1,54.08,0Zm27.24,0a42,42,0,0,0-82.74,0h-12a53.92,53.92,0,0,1,106.82,0ZM73,217.61a47.29,47.29,0,0,1,46.32,39H108a35.92,35.92,0,0,0-70,0H26.7A47.28,47.28,0,0,1,73,217.61Zm20.39,39c-11.68-.22-28.56.07-40.79,0a21.91,21.91,0,0,1,40.79,0Z" transform="translate(-14.65 -19.14)"/><path class="cls-2" d="M85.52,258.48a14,14,0,0,0-25,0" transform="translate(-14.65 -19.14)"/><text class="cls-4" transform="translate(60.81 297.06)"><tspan class="cls-5">N</tspan><tspan class="cls-6" x="22.5" y="0">o</tspan><tspan class="cls-7" x="39.2" y="0">o</tspan><tspan class="cls-8" x="55.87" y="0">d</tspan><tspan class="cls-9" x="72.83" y="0">l</tspan><tspan x="80.96" y="0">e</tspan></text><text class="cls-4" transform="translate(117.31 338.7)"><tspan class="cls-5">N</tspan><tspan class="cls-6" x="22.5" y="0">o</tspan><tspan class="cls-7" x="39.2" y="0">o</tspan><tspan class="cls-8" x="55.87" y="0">d</tspan><tspan class="cls-9" x="72.83" y="0">l</tspan><tspan x="80.96" y="0">e</tspan></text><path class="cls-10" d="M54.34,163.36l-12.57,2.77s-6.84,1.1-7.33-6c-.53-7.52,5-8.49,5-8.49l14.86-3.78" transform="translate(-14.65 -19.14)"/><path class="cls-10" d="M54.34,142.74,43.1,147.6s-6.47,3.19-8.68,1.87c-1-.58-4.4-1.87-5.16-5.23a8.26,8.26,0,0,1,.48-5.1c1.94-4,8.81-5.56,13.47-7.63,3.81-1.69,6.29-2.9,11.11-5" transform="translate(-14.65 -19.14)"/><polygon class="cls-10" points="54.61 110.06 54.44 101.29 59.02 99.33 59.04 115.64 54.61 117.53 54.61 110.06"/><polyline class="cls-10" points="74.04 120.3 78.46 119.24 78.76 134.62 74.04 135.75"/><polyline class="cls-10" points="73.96 92.89 78.44 91.01 78.46 107.32 74.04 109.22"/><polyline class="cls-10" points="93.38 84.62 97.87 82.69 97.89 99 93.46 100.9"/><polyline class="cls-10" points="93.46 115.64 97.89 114.58 97.9 130 93.48 131.06"/><polyline class="cls-10" points="112.79 76.3 117.31 74.35 117.31 90.68 112.89 92.58"/><polyline class="cls-10" points="112.89 110.98 117.31 109.91 117.27 125.35 112.91 126.4"/><polyline class="cls-10" points="54.61 124.97 59.04 123.9 60.51 140.32 56.38 141.5"/><path class="cls-10" d="M146.57,87.25l.41,16.14L310,33.61c1.33-.83,2.29-1.21,3-2.29l1-1.87c.93-1.75.4-5.13-.41-6.44a7.44,7.44,0,0,0-4.45-3.54,6.93,6.93,0,0,0-5,.31" transform="translate(-14.65 -19.14)"/><path class="cls-10" d="M147,125.44l0,13a1.92,1.92,0,0,0,2.38,1.88l180-43.22a7.48,7.48,0,0,0,3.84-2A9.84,9.84,0,0,0,335,92.44a6.8,6.8,0,0,0,.44-2,8,8,0,0,0-2.85-6.67,10.37,10.37,0,0,0-3.32-1.47,6.75,6.75,0,0,0-3,.09" transform="translate(-14.65 -19.14)"/></svg>