<svg id="Layer_1" data-name="Layer 1" xmlns="http://www.w3.org/2000/svg" viewBox="0 0 320.8 391.91"><defs><style>.cls-1{fill:#f9b115;}.cls-2{fill:none;}.cls-12,.cls-3,.cls-4,.cls-5{fill:#fff;}.cls-4{stroke:#000;stroke-miterlimit:10;}.cls-12,.cls-5{font-size:36px;font-family:MarkerFelt-Thin, Marker Felt;font-weight:200;}.cls-5{letter-spacing:0.04em;}.cls-6{letter-spacing:0.05em;}.cls-7{letter-spacing:0.04em;}.cls-8{letter-spacing:0.03em;}.cls-9{letter-spacing:0.08em;}.cls-10{letter-spacing:0em;}.cls-11{letter-spacing:0.04em;}.cls-13{letter-spacing:0.02em;}.cls-14{letter-spacing:0.05em;}.cls-15{letter-spacing:0.05em;}.cls-16{letter-spacing:0.03em;}.cls-17{letter-spacing:0.08em;}.cls-18{fill:#af2024;}</style></defs><path class="cls-1" d="M266.1,256.86H252.92a67.46,67.46,0,0,0-1.56-8.82l0-.1c-6.42-28.63-31.94-50.27-62.86-51.55l-1.45,0-1.63,0-1.49,0q-.83,0-1.65.06c-.55,0-1.09,0-1.63.09s-1.08.08-1.62.14-1.08.1-1.62.17-1.07.13-1.6.21c-.77.1-1.54.23-2.31.37l-1.23.23-1.1.22-1,.22h-.06l-.23.06-1.52.37-1.75.47c-.41.11-.82.24-1.22.36l-.44.14h0l-.91.3c-.22.07-.45.14-.67.23-1.07.35-2.12.74-3.17,1.16-.52.2-1,.42-1.55.64-2.06.88-4.08,1.86-6,2.93-.39.21-.77.42-1.15.65l-.41.23c-.31.18-.62.36-.92.55s-.55.33-.82.5l-.63.4-.63.41-.8.53-.37.25-1.15.81c-.36.26-.71.51-1.06.78s-.63.47-.94.71-.89.7-1.33,1.06l-1.3,1.09c-.38.31-.75.64-1.12,1l-.31.28c-.36.32-.72.66-1.08,1l-1.21,1.18c-.27.27-.53.53-.78.8l-.61.63-.6.65-.49.54-.64.72-.33.38-.11.12-.2.24c-.2.24-.41.48-.6.73s-.62.75-.91,1.13l-.41.53c-.13.16-.25.31-.36.47-.53.7-1,1.4-1.53,2.11-.24.34-.48.68-.71,1l-.21.32c-.32.49-.63,1-.94,1.48-.15.24-.3.48-.44.72-.44.72-.86,1.46-1.27,2.2-.28.49-.54,1-.8,1.49-.05.09-.1.17-.14.26s-.14.26-.2.39a64.18,64.18,0,0,0-6.68,23.61h-1.22l0,.18H105.9a35.21,35.21,0,0,0-3.57-9.41c-.19-.37-.4-.73-.62-1.09s-.33-.56-.52-.84a35.9,35.9,0,0,0-65.32,11.25h0s0,.06,0,.09H24.57a47.43,47.43,0,0,1,29.68-35.93c0-11,.06-54,0-57.55l.11,0,0-15.46-.07,0c0-.15,0-.24,0-.24s0-2.61,0-4.91l.07,0,0-16.28h0c0-1.6,0-3,0-4a7.65,7.65,0,0,1,7.31-7.81A7.49,7.49,0,0,1,69,120.41l0,0,.18,8.77v14.9L71,160.63l-1.6,57.24-.16,5.63h6.19l0-5.43v-.29a.33.33,0,0,0,0-.14V159.69a.25.25,0,0,0-.3-.24L73.68,143v-8.26l0-16.32a0,0,0,0,0,0,0v-5.12a7.68,7.68,0,0,1,6.26-7.67A7.49,7.49,0,0,1,88.6,112l.08,16.32v93A47.54,47.54,0,0,1,108.63,237a80.88,80.88,0,0,1,53.81-50.76l-1.67.52c.65-.21,1.31-.41,2-.6,1.35-.39,2.72-.75,4.1-1.07.79-.18,1.58-.35,2.38-.51l1.32-.25,1.24-.22c.61-.11,1.22-.2,1.83-.29l.45-.06c.68-.1,1.36-.18,2.05-.26l.63-.06,1.59-.15a2.48,2.48,0,0,1,.27,0h.05l.4,0h0q1.13-.09,2.25-.15l.79,0c.37,0,.73,0,1.1,0,.72,0,1.45,0,2.18,0,1.28,0,2.55,0,3.82.09,1,0,2,.11,2.95.19s2,.18,2.92.3,1.93.25,2.89.4,1.9.32,2.85.5c.63.12,1.25.25,1.88.39.88.18,1.76.39,2.63.61s1.95.51,2.91.8l1.8.55,2,.65c.63.22,1.25.44,1.87.68s1.24.47,1.85.72a82,82,0,0,1,42.34,39.05,4.39,4.39,0,0,1,.21.44A79.23,79.23,0,0,1,266.1,256.86Z" transform="translate(-14.65 -19.14)"/><path class="cls-1" d="M54.34,163.36l-.11,0a2.17,2.17,0,0,0,0-.24c-.77-.37-.08-13.29,0-15.22l.07,0Z" transform="translate(-14.65 -19.14)"/><path class="cls-1" d="M54.27,142.77c0-2.82,0-5.17,0-1.71,0,0,.07-8.6.06-14.58h0l0,16.28Z" transform="translate(-14.65 -19.14)"/><path class="cls-1" d="M75.42,217.78v.29l0,5.43H69.27l.16-5.63L71,160.63,69.26,144.1V129.2l-.18-8.77,4.58-2,0,16.32V143l1.48,16.41a.25.25,0,0,1,.3.24v57.95A.33.33,0,0,1,75.42,217.78Z" transform="translate(-14.65 -19.14)"/><path class="cls-1" d="M108.13,150.2l0,0v1.15a7.7,7.7,0,0,1-7.16,7.79,7.49,7.49,0,0,1-7.54-5.4l-.3-15.38V126.46l0-16.31,0,0v-4.81a7.66,7.66,0,0,1,6.16-7.64,7.5,7.5,0,0,1,8.71,6.06s0,0,0,0l.09,16.28v14.75Z" transform="translate(-14.65 -19.14)"/><path class="cls-1" d="M93.41,153.76s0,0,0,0l-4.66,1.12a0,0,0,0,0,0,0V128.35L88.6,112a0,0,0,0,0,.05,0l4.44-1.9,0,16.31v11.92Z" transform="translate(-14.65 -19.14)"/><path class="cls-1" d="M127.53,130.11l0,15.42s0,0,0,0V148a7.68,7.68,0,0,1-6.31,7.68,7.5,7.5,0,0,1-8.64-6.56,0,0,0,0,0,0,0l0-15.42V118.14l0-16.31s0,0,0,0V97a7.68,7.68,0,0,1,6.15-7.64,7.51,7.51,0,0,1,8.72,6s.09,0,.24-.06l-.2.09.09,16.28Z" transform="translate(-14.65 -19.14)"/><polygon class="cls-1" points="97.88 114.57 97.9 129.99 93.48 131.06 93.46 115.64 93.46 100.89 93.37 84.61 97.86 82.69 97.88 99 97.88 114.57"/><path class="cls-1" d="M147,158.81a7.5,7.5,0,0,1-8.42,7.44,7.71,7.71,0,0,1-6.58-7.76v-14s0,0,0,0l0-15.43V90a7.68,7.68,0,0,1,7-7.76,7.5,7.5,0,0,1,7.59,5Z" transform="translate(-14.65 -19.14)"/><path class="cls-1" d="M132,93.48v35.57l0,15.43-4.36,1.05,0-15.42V111.72l-.09-16.28.2-.09.92-.39,2.1-.91.71-.31.4-.17.17-.06S132,93.5,132,93.48Z" transform="translate(-14.65 -19.14)"/><line class="cls-2" x1="59.04" y1="123.9" x2="54.61" y2="124.97"/><polygon class="cls-3" points="59.03 115.64 59.03 123.9 54.61 124.96 54.61 117.53 59.03 115.64"/><path class="cls-3" d="M75.42,217.78v.29l0,5.43H69.27l.16-5.63L71,160.63a.25.25,0,0,1,.18-.23l4-1a.25.25,0,0,1,.3.24v57.95A.33.33,0,0,1,75.42,217.78Z" transform="translate(-14.65 -19.14)"/><polygon class="cls-3" points="78.46 107.32 78.46 119.24 74.03 120.3 74.03 109.21 78.46 107.32"/><polygon class="cls-3" points="97.88 99 97.88 114.57 93.46 115.64 93.46 100.89 97.88 99"/><polygon class="cls-3" points="117.31 90.68 117.31 109.91 112.88 110.97 112.88 92.58 117.31 90.68"/><path d="M22.15,259a7.5,7.5,0,0,0-7.5,7.5c0,28.22,6.89,54.24,19.93,75.24a110.05,110.05,0,0,0,54.55,45.09v16.73a7.5,7.5,0,0,0,7.5,7.5h97.49a7.5,7.5,0,0,0,7.5-7.5V386.82a110.05,110.05,0,0,0,54.55-45.09c13-21,19.93-47,19.93-75.24a7.5,7.5,0,0,0-7.5-7.5Zm82,137.06v-7.19h82.49v7.19Z" transform="translate(-14.65 -19.14)"/><path class="cls-4" d="M85.13,344c-16.69-10.31-28.23-27-33.39-48.31a7.5,7.5,0,1,0-14.57,3.53c6.1,25.21,20,45.11,40.07,57.54A7.5,7.5,0,0,0,85.13,344Z" transform="translate(-14.65 -19.14)"/><text class="cls-5" transform="translate(60.81 297.06)">O<tspan class="cls-6" x="20.77" y="0">o</tspan><tspan class="cls-7" x="37.44" y="0">d</tspan><tspan class="cls-8" x="54.39" y="0">l</tspan><tspan class="cls-9" x="62.53" y="0">e</tspan><tspan class="cls-10" x="78.94" y="0">s </tspan><tspan class="cls-11" x="101.26" y="0">o</tspan><tspan class="cls-10" x="117.61" y="0">f</tspan></text><text class="cls-12" transform="translate(112.89 336.66)"><tspan class="cls-13">N</tspan><tspan class="cls-14" x="22.5" y="0">o</tspan><tspan class="cls-15" x="39.2" y="0">o</tspan><tspan class="cls-7" x="55.87" y="0">d</tspan><tspan class="cls-16" x="72.83" y="0">l</tspan><tspan class="cls-17" x="80.96" y="0">e</tspan><tspan x="97.38" y="0">s</tspan></text><path class="cls-18" d="M54.34,163.36l-.11,0-12.46,2.75s-6.84,1.1-7.34-6c-.52-7.52,5-8.49,5-8.49l14.79-3.76.07,0Z" transform="translate(-14.65 -19.14)"/><path class="cls-18" d="M54.34,142.74l-.07,0L43.1,147.6s-6.47,3.19-8.68,1.87c-1-.58-4.4-1.87-5.17-5.23a8.2,8.2,0,0,1,.49-5.1c1.93-4,8.81-5.57,13.47-7.64,3.8-1.68,6.28-2.89,11.08-5h0Z" transform="translate(-14.65 -19.14)"/><polygon class="cls-18" points="54.61 117.53 54.61 110.06 54.43 101.29 59.01 99.32 59.03 115.64 54.61 117.53"/><polygon class="cls-18" points="78.76 134.62 74.03 135.75 74.03 120.3 78.46 119.24 78.76 134.62"/><polygon class="cls-18" points="78.46 107.32 74.03 109.21 73.95 92.89 78.44 91.01 78.46 107.32"/><polygon class="cls-18" points="97.88 99 93.46 100.89 93.37 84.61 97.86 82.69 97.88 99"/><polygon class="cls-18" points="97.9 129.99 93.48 131.06 93.46 115.64 97.88 114.57 97.9 129.99"/><path class="cls-18" d="M132,93.48v16.34l-4.43,1.9-.09-16.28.2-.09.92-.39,2.1-.91.71-.31.4-.17Z" transform="translate(-14.65 -19.14)"/><polygon class="cls-18" points="117.31 109.91 117.27 125.34 112.91 126.39 112.88 110.97 117.31 109.91"/><polygon class="cls-18" points="60.51 140.31 56.38 141.49 54.61 124.96 59.03 123.9 60.51 140.31"/><path class="cls-18" d="M146.57,87.25l.41,16.14L310,33.61c1.33-.83,2.29-1.21,3-2.29l1-1.87c.93-1.75.4-5.13-.41-6.44a7.44,7.44,0,0,0-4.45-3.54,6.93,6.93,0,0,0-5,.31Z" transform="translate(-14.65 -19.14)"/><path class="cls-18" d="M147,125.44l0,14.76a.55.55,0,0,0,.68.54L329.31,97.1a7.48,7.48,0,0,0,3.84-2A9.84,9.84,0,0,0,335,92.44a6.8,6.8,0,0,0,.44-2,8,8,0,0,0-2.85-6.67,10.37,10.37,0,0,0-3.32-1.47,6.75,6.75,0,0,0-3,.09Z" transform="translate(-14.65 -19.14)"/><path class="cls-3" d="M82.26,256.77H59.59a13.93,13.93,0,0,1,22.67,0Z" transform="translate(-14.65 -19.14)"/><path class="cls-3" d="M105.73,256.77H91.24a21.9,21.9,0,0,0-40.7,0H35.87a35.9,35.9,0,0,1,65.32-11.25c.19.28.36.56.52.84s.42.72.62,1.09A34.14,34.14,0,0,1,105.73,256.77Z" transform="translate(-14.65 -19.14)"/><rect class="cls-3" x="89.48" y="369.73" width="82.49" height="7.19"/><path class="cls-3" d="M38,256.63Z" transform="translate(-14.65 -19.14)"/><path class="cls-1" d="M162.74,186.11c-.66.19-1.32.39-2,.6l1.67-.52Z" transform="translate(-14.65 -19.14)"/><path class="cls-1" d="M162.74,186.11c-.66.19-1.32.39-2,.6l1.67-.52Z" transform="translate(-14.65 -19.14)"/><path class="cls-1" d="M258.06,227.86a82,82,0,0,0-42.34-39.05A81,81,0,0,1,258.06,227.86Z" transform="translate(-14.65 -19.14)"/><path class="cls-1" d="M199.47,256.79l-28.15,0a15.78,15.78,0,0,1,28.15,0Z" transform="translate(-14.65 -19.14)"/><path class="cls-1" d="M226.75,256.83l-14.35,0a28,28,0,0,0-54-.08l-14.35,0a42,42,0,0,1,82.71.12Z" transform="translate(-14.65 -19.14)"/><path class="cls-1" d="M252.92,256.86h-.23l-13.89,0A53.93,53.93,0,0,0,132,256.7l-13.58,0a64.18,64.18,0,0,1,6.68-23.61c.06-.13.13-.26.2-.39s.09-.17.14-.26c.26-.5.53-1,.8-1.49.41-.74.83-1.48,1.27-2.2.14-.24.29-.48.44-.72.31-.5.62-1,.94-1.48l.21-.32.71-1c.49-.71,1-1.41,1.53-2.11a5.32,5.32,0,0,1,.36-.47c.13-.18.27-.35.41-.53.29-.38.6-.76.91-1.13l.6-.73.2-.24h0l.09-.11.33-.38.64-.72.49-.54.6-.65.61-.63c.25-.27.51-.53.78-.8l1.21-1.18c.35-.33.71-.67,1.08-1l.31-.28c.37-.33.74-.66,1.12-1l1.3-1.09,1.33-1.06c.31-.24.62-.48.94-.71s.7-.52,1.06-.78l1.15-.81.37-.25.8-.53.63-.41.63-.4c.27-.17.54-.34.82-.5s.61-.37.92-.55l.41-.23c.38-.22.76-.44,1.15-.65,2-1.07,4-2.05,6-2.93l1.55-.64c1-.42,2.1-.81,3.17-1.16h0l.39-.13.27-.1.91-.3h0l.44-.14,1.22-.36,1.75-.47,1.52-.37.23-.06h.06l1-.22,1.1-.22,1.23-.23c.77-.14,1.54-.27,2.31-.37.53-.08,1.06-.15,1.6-.21l1.62-.17,1.62-.14c.54,0,1.08-.07,1.63-.09s1.1-.05,1.65-.06l1.49,0,1.63,0,1.45,0c30.92,1.28,56.44,22.92,62.86,51.55l0,.1A67.46,67.46,0,0,1,252.92,256.86Z" transform="translate(-14.65 -19.14)"/><path class="cls-1" d="M266.1,256.86v0l-13.18,0Z" transform="translate(-14.65 -19.14)"/><path class="cls-3" d="M251.36,248l0-.1c-6.42-28.63-31.94-50.27-62.86-51.55l-1.45,0-1.63,0-1.49,0q-.83,0-1.65.06c-.55,0-1.09,0-1.63.09l-1.62.14-1.62.17c-.54.06-1.07.13-1.6.21-.77.1-1.54.23-2.31.37l-1.23.23-1.1.22-1,.22h-.06l-.23.06-1.52.37-1.75.47-1.22.36-.44.14h0l-.91.3-.27.1-.39.13h0c-1.07.35-2.12.74-3.17,1.16l-1.55.64c-2.06.88-4.08,1.86-6,2.93-.39.21-.77.43-1.15.65l-.41.23c-.31.18-.62.36-.92.55s-.55.33-.82.5l-.63.4-.63.41-.8.53-.37.25-1.15.81c-.36.26-.71.51-1.06.78s-.63.47-.94.71l-1.33,1.06-1.3,1.09c-.38.32-.75.65-1.12,1l-.31.28c-.37.33-.73.67-1.08,1l-1.21,1.18c-.27.27-.53.53-.78.8l-.61.63-.6.65-.49.54-.64.72-.33.38-.11.12-.2.24-.6.73c-.31.37-.62.75-.91,1.13-.14.18-.28.35-.41.53a5.32,5.32,0,0,0-.36.47c-.53.7-1,1.4-1.53,2.11l-.71,1-.21.32c-.32.49-.63,1-.94,1.48-.15.24-.3.48-.44.72-.44.72-.86,1.46-1.27,2.2-.27.49-.54,1-.8,1.49-.05.09-.1.17-.14.26s-.14.26-.2.39a64.18,64.18,0,0,0-6.68,23.61s0,.08,0,.12h52.88l28.22,0h27.26l25.93,0v0A64,64,0,0,0,251.36,248Zm-51.89,8.75a15.78,15.78,0,0,0-28.15,0l-12.93,0a28,28,0,0,1,54,.08Zm27.28,0a42,42,0,0,0-82.71-.12H132a53.93,53.93,0,0,1,106.81.14Z" transform="translate(-14.65 -19.14)"/><path class="cls-2" d="M91.24,256.77h-9a13.93,13.93,0,0,0-22.67,0H50.54a.36.36,0,0,0,0,.09c2.8,0,5.85,0,9,0l13-.05,9,0h.67c3.2,0,6.25,0,9,.08A.36.36,0,0,0,91.24,256.77Zm-55.34,0a36,36,0,0,1,65.29-11.25m125.56,11.31a0,0,0,0,1,0,0h12v0ZM132,256.7s0,.07,0,.11a.09.09,0,0,0,0,.05h12a.06.06,0,0,1,0,0,.43.43,0,0,1,0-.11Zm26.4,0,0,.09v0h12.91l0,0a.2.2,0,0,1,0-.08Zm54,.08-12.93,0,0,.06h12.92S212.41,256.83,212.4,256.81Zm-52.22-55.66-1.55.64c-2.06.88-4.08,1.86-6,2.93-.39.21-.77.43-1.15.65l-.41.23c-.31.18-.62.36-.92.55s-.55.33-.82.5l-.63.4-.63.41-.8.53-.37.25-1.15.81c-.36.26-.71.51-1.06.78s-.63.47-.94.71l-1.33,1.06-1.3,1.09c-.38.32-.75.65-1.12,1l-.31.28c-.37.33-.73.67-1.08,1l-1.21,1.18c-.27.27-.53.53-.78.8l-.61.63-.6.65-.49.54-.64.72-.33.38-.11.12-.2.24-.6.73c-.31.37-.62.75-.91,1.13-.14.18-.28.35-.41.53a5.32,5.32,0,0,0-.36.47c-.53.7-1,1.4-1.53,2.11l-.71,1-.21.32c-.32.49-.63,1-.94,1.48-.15.24-.3.48-.44.72-.44.72-.86,1.46-1.27,2.2-.27.49-.54,1-.8,1.49A68.35,68.35,0,0,1,163.35,200C162.28,200.34,161.23,200.73,160.18,201.15Zm4.75-1.69-.91.3-.27.1,1.2-.4Zm-2.49-13.27-1.67.52c.65-.21,1.31-.41,2-.6Zm26,10.2a68.18,68.18,0,0,1,62.86,51.55C244.91,219.31,219.39,197.67,188.47,196.39Zm69.8,31.91a79.23,79.23,0,0,1,7.83,28.56h.25A80.33,80.33,0,0,0,258.27,228.3Z" transform="translate(-14.65 -19.14)"/><path class="cls-1" d="M212.4,256.81l-12.93,0a15.78,15.78,0,0,0-28.15,0l-12.93,0a28,28,0,0,1,54,.08Z" transform="translate(-14.65 -19.14)"/><path class="cls-1" d="M238.8,256.84H226.75a42,42,0,0,0-82.71-.12H132a53.93,53.93,0,0,1,106.81.14Z" transform="translate(-14.65 -19.14)"/><path class="cls-1" d="M129.09,226.21l.71-1-.92,1.35Z" transform="translate(-14.65 -19.14)"/><path class="cls-1" d="M133.81,220l.11-.12-.09.11-.22.25Z" transform="translate(-14.65 -19.14)"/><path class="cls-1" d="M91.24,256.77h-9a13.93,13.93,0,0,0-22.67,0H50.54a21.9,21.9,0,0,1,40.7,0Z" transform="translate(-14.65 -19.14)"/><path class="cls-3" d="M82.27,256.78H81.6l-9,0-13,.05.07-.09a13.93,13.93,0,0,1,22.67,0Z" transform="translate(-14.65 -19.14)"/><path class="cls-1" d="M147,103.4Z" transform="translate(-14.65 -19.14)"/></svg>